<svg xmlns="http://www.w3.org/2000/svg" version="1.1" xmlns:xlink="http://www.w3.org/1999/xlink" width="2000" height="86" viewBox="0 0 2000 86"><svg xml:space="preserve" width="2000" height="86" data-version="2" data-id="lg_XhIlhk2xuDUo8zZs2z" viewBox="0 0 398 86" x="0" y="0"><rect width="100%" height="100%" fill="transparent"></rect><path fill="#ac6aff" d="M19.49 82.785H4.41v-81.2h29.12l16.12 70.76h2.09V1.585h15.08v81.2H37.7l-16.12-70.76h-2.09zm89.32 1.63q-8.58 0-15.14-3.66-6.55-3.65-10.2-10.32-3.66-6.67-3.66-15.72v-1.39q0-9.05 3.6-15.72 3.59-6.67 10.09-10.32 6.5-3.66 15.08-3.66 8.47 0 14.73 3.77 6.27 3.77 9.75 10.44 3.48 6.67 3.48 15.49v4.99H94.66q.23 5.91 4.41 9.63 4.17 3.71 10.21 3.71 6.14 0 9.04-2.67 2.9-2.67 4.41-5.92l11.95 6.27q-1.62 3.01-4.7 6.55-3.07 3.54-8.18 6.03-5.1 2.5-12.99 2.5m-14.03-37.01h26.91q-.47-4.98-4.01-8-3.53-3.02-9.22-3.02-5.91 0-9.39 3.02-3.48 3.02-4.29 8m76.67 36.31q-6.73 0-11.77-3.07-5.05-3.08-7.83-8.53-2.79-5.45-2.79-12.53v-34.33h14.62v33.17q0 6.5 3.19 9.75t9.11 3.25q6.72 0 10.44-4.47 3.71-4.47 3.71-12.47v-29.23h14.61v57.53h-14.38v-7.54h-2.09q-1.39 2.9-5.22 5.69-3.83 2.78-11.6 2.78m64.15-.93h-14.62v-57.53h14.39v6.49h2.09q1.27-3.48 4.23-5.1 2.96-1.62 6.9-1.62h6.96v12.99h-7.19q-5.57 0-9.16 2.96-3.6 2.95-3.6 9.1zm58.7 1.63q-8.59 0-15.43-3.48-6.85-3.48-10.79-10.09-3.94-6.62-3.94-15.9v-1.85q0-9.28 3.94-15.89 3.94-6.62 10.79-10.1 6.84-3.48 15.43-3.48 8.58 0 15.42 3.48 6.85 3.48 10.79 10.1 3.95 6.61 3.95 15.89v1.85q0 9.28-3.95 15.9-3.94 6.61-10.79 10.09-6.84 3.48-15.42 3.48m0-12.99q6.72 0 11.13-4.35 4.41-4.35 4.41-12.47v-1.16q0-8.12-4.35-12.47-4.35-4.35-11.19-4.35-6.73 0-11.14 4.35t-4.41 12.47v1.16q0 8.12 4.41 12.47 4.41 4.35 11.14 4.35m58.23 11.36h-14.62v-57.53h14.39v7.54h2.08q1.4-3.02 5.22-5.74 3.83-2.73 11.6-2.73 6.73 0 11.78 3.07 5.04 3.08 7.83 8.47 2.78 5.4 2.78 12.59v34.33h-14.61v-33.17q0-6.5-3.19-9.75-3.19-3.24-9.11-3.24-6.73 0-10.44 4.46-3.71 4.47-3.71 12.47z"></path></svg></svg>